# xmcd
#
# Track frame offsets: 
#        150
#        20767
#        48890
#        58376
#        75998
#        97722
#        120492
#        138896
#        164220
#        183552
#        205676
#        225427
#        249128
#        270838
#
# Disc length: 3884 seconds
#
# Revision: 1
# Processed by: cddbd v1.5.2PL0 Copyright (c) Steve Scherf et al.
# Submitted via: ExactAudioCopy v1.0b1
#
DISCID=aa0f2a0e
DTITLE=ESCHBACH Andreas - Der Letzte seiner Art (5v5)
DYEAR=2004
DGENRE=Hörbuch
TTITLE0=Der Letzte seiner Art 62
TTITLE1=Der Letzte seiner Art 63
TTITLE2=Der Letzte seiner Art 64
TTITLE3=Der Letzte seiner Art 65
TTITLE4=Der Letzte seiner Art 66
TTITLE5=Der Letzte seiner Art 67
TTITLE6=Der Letzte seiner Art 68
TTITLE7=Der Letzte seiner Art 69
TTITLE8=Der Letzte seiner Art 70
TTITLE9=Der Letzte seiner Art 71
TTITLE10=Der Letzte seiner Art 72
TTITLE11=Der Letzte seiner Art 73
TTITLE12=Der Letzte seiner Art 74
TTITLE13=Der Letzte seiner Art 75
EXTD=gelesen von Martin May
EXTT0=
EXTT1=
EXTT2=
EXTT3=
EXTT4=
EXTT5=
EXTT6=
EXTT7=
EXTT8=
EXTT9=
EXTT10=
EXTT11=
EXTT12=
EXTT13=
PLAYORDER=
